<svg width="1028" height="1028" viewBox="0 0 1028 1028" fill="none" xmlns="http://www.w3.org/2000/svg">
<rect width="1028" height="1028" fill="black"/>
<path d="M692.306 860.651C634.531 860.651 597.674 823.266 581.736 748.495L558.826 639.29C551.521 603.873 543.22 576.981 533.922 558.617C525.289 540.252 513.004 527.79 497.066 521.231C481.792 514.672 460.541 511.393 433.314 511.393C424.017 511.393 416.712 514.016 411.399 519.263C406.087 523.855 403.43 529.758 403.43 536.972V782.929C403.43 796.702 406.087 806.213 411.399 811.46C416.712 816.051 428.665 819.986 447.26 823.266L484.116 829.169C491.421 830.481 495.074 834.088 495.074 839.991C495.074 847.861 490.093 851.797 480.132 851.797H277.919C267.957 851.797 262.977 848.189 262.977 840.975C262.977 835.072 267.293 831.136 275.926 829.169L298.837 825.233C312.783 822.61 321.748 819.003 325.732 814.411C330.381 809.82 332.705 800.638 332.705 786.864V208.374C332.705 194.601 330.381 185.418 325.732 180.827C321.748 176.236 312.783 172.629 298.837 170.005L275.926 166.07C267.293 164.102 262.977 160.167 262.977 154.264C262.977 147.049 267.957 143.442 277.919 143.442H480.132C519.313 143.442 554.177 150.985 584.725 166.07C615.273 181.155 639.18 202.143 656.446 229.035C673.712 255.27 682.345 285.769 682.345 320.531C682.345 361.851 669.727 399.237 644.492 432.687C619.257 465.481 587.381 488.765 548.864 502.538C544.216 503.85 541.559 506.146 540.895 509.425C540.895 512.049 543.22 514.344 547.868 516.312C569.119 526.15 585.721 539.924 597.674 557.633C610.292 575.342 619.921 598.953 626.562 628.468L648.477 728.818C655.782 762.924 664.415 787.192 674.376 801.622C684.337 816.051 696.955 823.266 712.229 823.266C717.541 823.266 722.19 822.61 726.174 821.298C730.823 819.33 736.468 816.051 743.109 811.46C748.421 808.18 753.402 807.525 758.05 809.492C762.699 810.804 765.023 814.083 765.023 819.33C765.023 830.481 757.718 840.319 743.109 848.845C728.499 856.716 711.565 860.651 692.306 860.651ZM470.17 486.797C515.328 486.797 549.528 472.04 572.771 442.525C596.014 412.354 607.636 372.345 607.636 322.498C607.636 273.963 594.022 236.249 566.795 209.358C540.231 181.811 503.375 168.037 456.225 168.037C421.028 168.037 403.43 181.155 403.43 207.391V432.687C403.43 468.76 425.677 486.797 470.17 486.797Z" fill="white"/>
</svg>
